<svg width="137" height="23" viewBox="0 0 137 23" fill="none" xmlns="http://www.w3.org/2000/svg">
<path d="M10.032 18.288C8.736 18.288 7.528 18.08 6.408 17.664C5.304 17.232 4.344 16.624 3.528 15.84C2.712 15.056 2.072 14.136 1.608 13.08C1.16 12.024 0.936 10.864 0.936 9.6C0.936 8.336 1.16 7.176 1.608 6.12C2.072 5.064 2.712 4.144 3.528 3.36C4.36 2.576 5.328 1.976 6.432 1.56C7.536 1.128 8.744 0.912 10.056 0.912C11.512 0.912 12.824 1.168 13.992 1.68C15.176 2.176 16.168 2.912 16.968 3.888L14.472 6.192C13.896 5.536 13.256 5.048 12.552 4.728C11.848 4.392 11.08 4.224 10.248 4.224C9.464 4.224 8.744 4.352 8.088 4.608C7.432 4.864 6.864 5.232 6.384 5.712C5.904 6.192 5.528 6.76 5.256 7.416C5 8.072 4.872 8.8 4.872 9.6C4.872 10.4 5 11.128 5.256 11.784C5.528 12.44 5.904 13.008 6.384 13.488C6.864 13.968 7.432 14.336 8.088 14.592C8.744 14.848 9.464 14.976 10.248 14.976C11.08 14.976 11.848 14.816 12.552 14.496C13.256 14.16 13.896 13.656 14.472 12.984L16.968 15.288C16.168 16.264 15.176 17.008 13.992 17.52C12.824 18.032 11.504 18.288 10.032 18.288ZM27.2793 18V15.48L27.0393 14.928V10.416C27.0393 9.616 26.7913 8.992 26.2953 8.544C25.8153 8.096 25.0713 7.872 24.0633 7.872C23.3753 7.872 22.6953 7.984 22.0233 8.208C21.3673 8.416 20.8073 8.704 20.3433 9.072L18.9993 6.456C19.7033 5.96 20.5513 5.576 21.5433 5.304C22.5353 5.032 23.5433 4.896 24.5673 4.896C26.5353 4.896 28.0633 5.36 29.1513 6.288C30.2393 7.216 30.7833 8.664 30.7833 10.632V18H27.2793ZM23.3433 18.192C22.3353 18.192 21.4713 18.024 20.7513 17.688C20.0313 17.336 19.4793 16.864 19.0953 16.272C18.7113 15.68 18.5193 15.016 18.5193 14.28C18.5193 13.512 18.7033 12.84 19.0713 12.264C19.4553 11.688 20.0553 11.24 20.8713 10.92C21.6873 10.584 22.7513 10.416 24.0633 10.416H27.4953V12.6H24.4713C23.5913 12.6 22.9833 12.744 22.6473 13.032C22.3273 13.32 22.1673 13.68 22.1673 14.112C22.1673 14.592 22.3513 14.976 22.7193 15.264C23.1033 15.536 23.6233 15.672 24.2793 15.672C24.9033 15.672 25.4633 15.528 25.9593 15.24C26.4553 14.936 26.8153 14.496 27.0393 13.92L27.6153 15.648C27.3433 16.48 26.8473 17.112 26.1273 17.544C25.4073 17.976 24.4793 18.192 23.3433 18.192ZM41.9038 18.192C40.8158 18.192 39.8638 17.952 39.0478 17.472C38.2318 16.992 37.5918 16.264 37.1278 15.288C36.6798 14.296 36.4558 13.048 36.4558 11.544C36.4558 10.024 36.6718 8.776 37.1038 7.8C37.5358 6.824 38.1598 6.096 38.9758 5.616C39.7918 5.136 40.7678 4.896 41.9038 4.896C43.1198 4.896 44.2078 5.176 45.1678 5.736C46.1438 6.28 46.9118 7.048 47.4718 8.04C48.0478 9.032 48.3358 10.2 48.3358 11.544C48.3358 12.904 48.0478 14.08 47.4718 15.072C46.9118 16.064 46.1438 16.832 45.1678 17.376C44.2078 17.92 43.1198 18.192 41.9038 18.192ZM34.2718 22.656V5.088H37.8478V7.728L37.7758 11.568L38.0158 15.384V22.656H34.2718ZM41.2558 15.12C41.8798 15.12 42.4318 14.976 42.9118 14.688C43.4078 14.4 43.7998 13.992 44.0878 13.464C44.3918 12.92 44.5438 12.28 44.5438 11.544C44.5438 10.792 44.3918 10.152 44.0878 9.624C43.7998 9.096 43.4078 8.688 42.9118 8.4C42.4318 8.112 41.8798 7.968 41.2558 7.968C40.6318 7.968 40.0718 8.112 39.5758 8.4C39.0798 8.688 38.6878 9.096 38.3998 9.624C38.1118 10.152 37.9678 10.792 37.9678 11.544C37.9678 12.28 38.1118 12.92 38.3998 13.464C38.6878 13.992 39.0798 14.4 39.5758 14.688C40.0718 14.976 40.6318 15.12 41.2558 15.12ZM57.0141 22.848C55.7981 22.848 54.6221 22.696 53.4861 22.392C52.3661 22.104 51.4301 21.664 50.6781 21.072L52.1661 18.384C52.7101 18.832 53.3981 19.184 54.2301 19.44C55.0781 19.712 55.9101 19.848 56.7261 19.848C58.0541 19.848 59.0141 19.552 59.6061 18.96C60.2141 18.368 60.5181 17.488 60.5181 16.32V14.376L60.7581 11.136L60.7101 7.872V5.088H64.2621V15.84C64.2621 18.24 63.6381 20.008 62.3901 21.144C61.1421 22.28 59.3501 22.848 57.0141 22.848ZM56.4381 17.376C55.2381 17.376 54.1501 17.12 53.1741 16.608C52.2141 16.08 51.4381 15.352 50.8461 14.424C50.2701 13.48 49.9821 12.384 49.9821 11.136C49.9821 9.872 50.2701 8.776 50.8461 7.848C51.4381 6.904 52.2141 6.176 53.1741 5.664C54.1501 5.152 55.2381 4.896 56.4381 4.896C57.5261 4.896 58.4861 5.12 59.3181 5.568C60.1501 6 60.7981 6.68 61.2621 7.608C61.7261 8.52 61.9581 9.696 61.9581 11.136C61.9581 12.56 61.7261 13.736 61.2621 14.664C60.7981 15.576 60.1501 16.256 59.3181 16.704C58.4861 17.152 57.5261 17.376 56.4381 17.376ZM57.1821 14.304C57.8381 14.304 58.4221 14.176 58.9341 13.92C59.4461 13.648 59.8461 13.272 60.1341 12.792C60.4221 12.312 60.5661 11.76 60.5661 11.136C60.5661 10.496 60.4221 9.944 60.1341 9.48C59.8461 9 59.4461 8.632 58.9341 8.376C58.4221 8.104 57.8381 7.968 57.1821 7.968C56.5261 7.968 55.9421 8.104 55.4301 8.376C54.9181 8.632 54.5101 9 54.2061 9.48C53.9181 9.944 53.7741 10.496 53.7741 11.136C53.7741 11.76 53.9181 12.312 54.2061 12.792C54.5101 13.272 54.9181 13.648 55.4301 13.92C55.9421 14.176 56.5261 14.304 57.1821 14.304ZM74.2548 18.192C72.7828 18.192 71.4868 17.904 70.3668 17.328C69.2628 16.752 68.4068 15.968 67.7988 14.976C67.1908 13.968 66.8868 12.824 66.8868 11.544C66.8868 10.248 67.1828 9.104 67.7748 8.112C68.3828 7.104 69.2068 6.32 70.2468 5.76C71.2868 5.184 72.4628 4.896 73.7748 4.896C75.0388 4.896 76.1748 5.168 77.1828 5.712C78.2068 6.24 79.0148 7.008 79.6068 8.016C80.1988 9.008 80.4948 10.2 80.4948 11.592C80.4948 11.736 80.4868 11.904 80.4708 12.096C80.4548 12.272 80.4388 12.44 80.4228 12.6H69.9348V10.416H78.4548L77.0148 11.064C77.0148 10.392 76.8788 9.808 76.6068 9.312C76.3348 8.816 75.9588 8.432 75.4788 8.16C74.9988 7.872 74.4388 7.728 73.7988 7.728C73.1588 7.728 72.5908 7.872 72.0948 8.16C71.6148 8.432 71.2388 8.824 70.9668 9.336C70.6948 9.832 70.5588 10.424 70.5588 11.112V11.688C70.5588 12.392 70.7108 13.016 71.0148 13.56C71.3348 14.088 71.7748 14.496 72.3348 14.784C72.9108 15.056 73.5828 15.192 74.3508 15.192C75.0388 15.192 75.6388 15.088 76.1508 14.88C76.6788 14.672 77.1588 14.36 77.5908 13.944L79.5828 16.104C78.9908 16.776 78.2468 17.296 77.3508 17.664C76.4548 18.016 75.4228 18.192 74.2548 18.192ZM99.6234 4.896C100.647 4.896 101.551 5.104 102.335 5.52C103.135 5.92 103.759 6.544 104.207 7.392C104.671 8.224 104.903 9.296 104.903 10.608V18H101.159V11.184C101.159 10.144 100.943 9.376 100.511 8.88C100.079 8.384 99.4714 8.136 98.6874 8.136C98.1434 8.136 97.6554 8.264 97.2234 8.52C96.7914 8.76 96.4554 9.128 96.2154 9.624C95.9754 10.12 95.8554 10.752 95.8554 11.52V18H92.1114V11.184C92.1114 10.144 91.8954 9.376 91.4634 8.88C91.0474 8.384 90.4474 8.136 89.6634 8.136C89.1194 8.136 88.6314 8.264 88.1994 8.52C87.7674 8.76 87.4314 9.128 87.1914 9.624C86.9514 10.12 86.8314 10.752 86.8314 11.52V18H83.0874V5.088H86.6634V8.616L85.9914 7.584C86.4394 6.704 87.0714 6.04 87.8874 5.592C88.7194 5.128 89.6634 4.896 90.7194 4.896C91.9034 4.896 92.9354 5.2 93.8154 5.808C94.7114 6.4 95.3034 7.312 95.5914 8.544L94.2714 8.184C94.7034 7.176 95.3914 6.376 96.3354 5.784C97.2954 5.192 98.3914 4.896 99.6234 4.896ZM114.861 18.192C113.389 18.192 112.093 17.904 110.973 17.328C109.869 16.752 109.013 15.968 108.405 14.976C107.797 13.968 107.493 12.824 107.493 11.544C107.493 10.248 107.789 9.104 108.381 8.112C108.989 7.104 109.813 6.32 110.853 5.76C111.893 5.184 113.069 4.896 114.381 4.896C115.645 4.896 116.781 5.168 117.789 5.712C118.813 6.24 119.621 7.008 120.213 8.016C120.805 9.008 121.101 10.2 121.101 11.592C121.101 11.736 121.093 11.904 121.077 12.096C121.061 12.272 121.045 12.44 121.029 12.6H110.541V10.416H119.061L117.621 11.064C117.621 10.392 117.485 9.808 117.213 9.312C116.941 8.816 116.565 8.432 116.085 8.16C115.605 7.872 115.045 7.728 114.405 7.728C113.765 7.728 113.197 7.872 112.701 8.16C112.221 8.432 111.845 8.824 111.573 9.336C111.301 9.832 111.165 10.424 111.165 11.112V11.688C111.165 12.392 111.317 13.016 111.621 13.56C111.941 14.088 112.381 14.496 112.941 14.784C113.517 15.056 114.189 15.192 114.957 15.192C115.645 15.192 116.245 15.088 116.757 14.88C117.285 14.672 117.765 14.36 118.197 13.944L120.189 16.104C119.597 16.776 118.853 17.296 117.957 17.664C117.061 18.016 116.029 18.192 114.861 18.192ZM131.542 4.896C132.566 4.896 133.478 5.104 134.278 5.52C135.094 5.92 135.734 6.544 136.198 7.392C136.662 8.224 136.894 9.296 136.894 10.608V18H133.15V11.184C133.15 10.144 132.918 9.376 132.454 8.88C132.006 8.384 131.366 8.136 130.534 8.136C129.942 8.136 129.406 8.264 128.926 8.52C128.462 8.76 128.094 9.136 127.822 9.648C127.566 10.16 127.438 10.816 127.438 11.616V18H123.694V5.088H127.27V8.664L126.598 7.584C127.062 6.72 127.726 6.056 128.59 5.592C129.454 5.128 130.438 4.896 131.542 4.896Z" fill="#252B42"/>
</svg>
